<svg xmlns="http://www.w3.org/2000/svg" width="96" height="96" viewBox="0 0 96 96">
  <!-- Transparent outside -->
  <rect width="96" height="96" fill="none"></rect>
  <!-- Pink circle -->
  <circle cx="48" cy="48" r="38" fill="#FF7474"></circle>
  <!-- Folder glyph (light gray) -->
  <path d="M60.6 37.4c.4.6-.2 1.3-.9 1.1a12 12 0 0 0-3.2-.4h-9.7c-.4 0-.8-.2-1-.5l-2.5-3.1c-.3-.4 0-.9.6-.9h8.1c3.3 0 6.2 1.5 8.6 3.8Z
       M61.5 42.6c-1.0-.8-2.1-1.3-3.3-1.6-.7-.2-1.4-.3-2.1-.3h-9.6c-.9 0-1.0-.1-1.5-.7l-2.7-3.4c-1-1.2-1.8-2-4.4-2h-4.6
       c-3.7 0-6.7 3-6.7 6.7v16.9c0 3.7 3 6.7 6.7 6.7H56c3.7 0 6.7-3 6.7-6.7V47.5c0-2-1.0-3.8-3.2-4.9ZM47.5 56.8h-9.2
       c-.5 0-.9-.4-.9-.9s.4-.9.9-.9h9.2c.5 0 .9.4.9.9s-.4.9-.9.9Z" fill="#A3B2C7"></path>
</svg>
