<svg xmlns="http://www.w3.org/2000/svg" width="64" height="64" viewBox="0 0 64 64">
  <!-- Circle background (emerald) -->
  <circle cx="32" cy="32" r="32" fill="#34D399"></circle>
  <!-- Camera glyph -->
  <path fill="#FFFFFF" d="M22 24h12c2.209 0 4 1.791 4 4v8c0 2.209-1.791 4-4 4H22c-2.209 0-4-1.791-4-4v-8c0-2.209 1.791-4 4-4Zm19.2 3.2 5.6 3.2c.76.435 1.2 1.218 1.2 2.08s-.44 1.645-1.2 2.08l-5.6 3.2a2.4 2.4 0 0 1-3.6-2.08v-6.4a2.4 2.4 0 0 1 3.6-2.08ZM27.5 31.25a2.25 2.25 0 1 0 0 4.5 2.25 2.25 0 0 0 0-4.5Z"></path>
</svg>
